<svg fill="none" height="800" stroke="#568976" viewBox="0 0 24 24" width="800" xmlns="http://www.w3.org/2000/svg"><g stroke="#568976" stroke-width="1.5"><path d="m8.03339 3.65784c.34593-.87712 1.58729-.87712 1.93322.00001l1.07199 2.71814c.1056.26779.3176.47977.5854.58538l2.7182 1.07202c.8771.34593.8771 1.58729 0 1.93322l-2.7182 1.07199c-.2678.1056-.4798.3176-.5854.5854l-1.07199 2.7182c-.34594.8771-1.58729.8771-1.93322 0l-1.07202-2.7182c-.10562-.2678-.31759-.4798-.58538-.5854l-2.71815-1.07199c-.87712-.34594-.87712-1.58729.00001-1.93322l2.71814-1.07202c.26779-.10562.47977-.31759.58538-.58538z"/><path d="m16.4885 13.3481c.183-.4641.84-.4641 1.023 0l.8006 2.03c.0559.1417.1681.2539.3098.3098l2.03.8006c.4641.183.4641.84 0 1.023l-2.03.8006c-.1417.0559-.2539.1681-.3098.3098l-.8006 2.03c-.183.4641-.84.4641-1.023 0l-.8006-2.03c-.0559-.1417-.1681-.2539-.3098-.3098l-2.03-.8006c-.4641-.183-.4641-.84 0-1.023l2.03-.8006c.1417-.0559.2539-.1681.3098-.3098z" opacity=".4"/></g></svg>