<svg xmlns="http://www.w3.org/2000/svg" xmlns:xlink="http://www.w3.org/1999/xlink" width="932" zoomAndPan="magnify" viewBox="0 0 699 254.999984" height="340" preserveAspectRatio="xMidYMid meet" version="1.2"><defs><clipPath id="a179239d90"><path d="M 2 53.394531 L 698 53.394531 L 698 238.644531 L 2 238.644531 Z M 2 53.394531 "/></clipPath><clipPath id="a8cf863ae3"><path d="M 598 7.371094 L 684.921875 7.371094 L 684.921875 85.371094 L 598 85.371094 Z M 598 7.371094 "/></clipPath></defs><g id="ef011df125"><g clip-rule="nonzero" clip-path="url(#a179239d90)"><path style=" stroke:none;fill-rule:nonzero;fill:#568976;fill-opacity:1;" d="M 15.527344 182.003906 C 26.214844 191.605469 41.511719 199.648438 60.167969 205.839844 C 78.820312 212.027344 107.414062 218.21875 135.917969 223.019531 C 164.421875 227.820312 192.753906 231.351562 220.851562 233.722656 C 248.921875 236.125 276.675781 237.484375 303.992188 238.003906 C 331.308594 238.496094 358.105469 238.265625 384.320312 237.425781 C 410.535156 236.585938 437.707031 235.199219 461.75 233.578125 C 485.792969 231.957031 507.171875 229.992188 526.496094 227.648438 C 545.816406 225.304688 563.488281 222.472656 580.144531 219.058594 C 596.800781 215.644531 612.820312 211.625 628.898438 206.851562 C 644.945312 202.078125 656.386719 197.59375 666.992188 191.027344 C 677.59375 184.492188 686.339844 176.21875 691.988281 166.613281 C 697.636719 156.984375 698.941406 146.308594 694.421875 135.492188 C 689.902344 124.671875 678.894531 114.433594 660.472656 105.175781 C 642.019531 95.917969 618.351562 87.9375 595.003906 81.398438 C 571.65625 74.863281 548.65625 69.625 526.003906 65.546875 C 503.378906 61.46875 481.132812 58.519531 459.375 56.609375 C 437.59375 54.699219 416.359375 53.660156 405.871094 53.976562 C 385.160156 53.917969 395.386719 54.527344 385.160156 54.152344 C 395.328125 55.65625 416.097656 57.332031 437.390625 59.445312 C 458.652344 61.554688 480.40625 64.304688 502.597656 67.746094 C 524.785156 71.1875 547.382812 75.613281 570.292969 81.226562 C 593.207031 86.835938 616.46875 93.75 638.398438 102.023438 C 660.328125 110.296875 675.246094 119.378906 683.039062 128.546875 C 690.832031 137.746094 692.773438 146.628906 690.339844 155.277344 C 687.90625 163.925781 681.765625 172.140625 672.988281 179.285156 C 664.210938 186.429688 653.808594 192.011719 640.425781 196.609375 C 627.042969 201.210938 611.253906 205.664062 595.234375 209.453125 C 579.21875 213.242188 562.472656 216.398438 544.425781 219.058594 C 526.40625 221.71875 506.59375 223.886719 484.460938 225.710938 C 462.332031 227.53125 437.390625 229.066406 410.882812 230.253906 C 384.378906 231.4375 358.046875 232.101562 331.191406 232.132812 C 304.308594 232.132812 276.964844 231.351562 249.242188 229.671875 C 221.519531 227.96875 193.507812 225.246094 165.261719 221.34375 C 137.019531 217.4375 108.660156 212.203125 84.933594 206.445312 C 61.210938 200.691406 44.089844 194.066406 31.023438 186.023438 C 17.960938 177.953125 9.992188 169.042969 8.023438 159.992188 C 6.054688 150.9375 10.71875 141.421875 23.984375 131.355469 C 37.253906 121.289062 60.457031 111.394531 89.628906 103.238281 C 118.796875 95.082031 147.476562 88.863281 177.253906 83.800781 C 207.035156 78.738281 237.828125 74.976562 269.519531 72.664062 C 301.210938 70.347656 333.683594 69.597656 366.878906 70.203125 C 400.078125 70.8125 433.941406 72.894531 459.664062 75.179688 C 485.390625 77.464844 485.417969 77.492188 468.296875 75.410156 C 468.296875 75.410156 434.261719 69.683594 400.542969 66.847656 C 366.824219 64.015625 333.65625 63.40625 301.210938 64.707031 C 268.765625 66.011719 237.160156 68.84375 206.511719 73.066406 C 175.867188 77.292969 146.230469 82.816406 117.753906 89.441406 C 89.28125 96.0625 58.371094 105.582031 37.746094 116.050781 C 17.121094 126.523438 5.765625 137.6875 2.867188 149.460938 C -0.0273438 161.234375 4.835938 172.371094 15.554688 182.003906 Z M 15.527344 182.003906 "/></g><g clip-rule="nonzero" clip-path="url(#a8cf863ae3)"><path style=" stroke:none;fill-rule:nonzero;fill:#568976;fill-opacity:1;" d="M 646.894531 12.164062 C 645.84375 9.734375 643.644531 8.082031 641.007812 7.753906 C 638.375 7.410156 635.832031 8.464844 634.207031 10.550781 L 612.304688 38.644531 L 601.953125 43.136719 C 598.664062 44.570312 597.160156 48.40625 598.582031 51.683594 L 603.292969 62.511719 C 603.988281 64.113281 605.257812 65.339844 606.871094 65.96875 C 607.59375 66.253906 608.34375 66.390625 609.09375 66.40625 L 615.785156 81.808594 C 616.660156 83.832031 618.65625 85.046875 620.730469 85.046875 C 621.441406 85.046875 622.179688 84.910156 622.875 84.59375 L 627.433594 82.613281 C 628.761719 82.042969 629.769531 80.988281 630.304688 79.652344 C 630.835938 78.3125 630.808594 76.851562 630.234375 75.527344 L 624.15625 61.542969 L 657.695312 64.519531 C 657.929688 64.535156 658.148438 64.546875 658.378906 64.546875 C 660.769531 64.546875 662.980469 63.429688 664.386719 61.460938 C 665.945312 59.316406 666.230469 56.574219 665.179688 54.140625 L 646.921875 12.136719 Z M 605.777344 61.433594 L 601.066406 50.605469 C 600.234375 48.695312 601.121094 46.46875 603.019531 45.648438 L 612.441406 41.550781 L 620.15625 59.304688 L 610.734375 63.402344 C 609.804688 63.796875 608.78125 63.824219 607.851562 63.457031 C 606.910156 63.085938 606.171875 62.378906 605.777344 61.449219 Z M 627.734375 78.667969 C 627.476562 79.324219 626.972656 79.84375 626.328125 80.128906 L 621.769531 82.109375 C 620.429688 82.695312 618.859375 82.070312 618.273438 80.730469 L 611.828125 65.886719 L 621.25 61.789062 L 627.695312 76.632812 C 627.980469 77.289062 627.996094 78 627.734375 78.667969 Z M 662.148438 59.878906 C 661.164062 61.242188 659.582031 61.96875 657.914062 61.816406 L 622.902344 58.703125 L 618.820312 49.320312 L 614.734375 39.941406 L 636.351562 12.21875 C 637.390625 10.894531 638.988281 10.226562 640.65625 10.441406 C 642.320312 10.648438 643.714844 11.699219 644.382812 13.242188 L 662.640625 55.25 C 663.308594 56.792969 663.117188 58.511719 662.136719 59.878906 Z M 661.519531 23.8125 L 659.882812 21.628906 L 672.253906 12.3125 L 673.894531 14.5 Z M 684.53125 41.660156 L 684.53125 44.390625 L 669.046875 44.390625 L 669.046875 41.660156 Z M 682.195312 27.71875 L 668.253906 34.449219 L 667.066406 31.992188 L 681.007812 25.261719 Z M 682.195312 27.71875 "/></g></g></svg>